# xmcd
# Copyright (C) 1995-1998 Ti Kan
#
# Track frame offsets:
#       150
#       36945
#       55760
#       71930
#       90045
#       106650
#       139070
#       154935
#       182740
#       200470
#       217835
#       264610
#
# Disc length: 4334 seconds
#
# Revision: 0
# Processed by: cddbd v1.5.2PL0 Copyright (c) Steve Scherf et al.
# Submitted via: CD-Transfer v1.0
#
DISCID=a210ec0c
DTITLE=Orb, The - Paterson, Hughes, Keogh, Fehlmann
DYEAR=1900
DGENRE=
TTITLE0=A Huge Evergrowing Pulsating Brain That Rules From The Centre Of The Ultraworld
TTITLE1=Little Fluffy Clouds (Dance Mix 2)
TTITLE2=Perpetual Dawn (Solar Youth Mix)
TTITLE3=Blue Room (Single Mix)
TTITLE4=Assassin (Single Mix)
TTITLE5=Pomme Fritz (Meat 'n Veg)
TTITLE6=Toxygene (Single Mix)
TTITLE7=Outlands (Album Vers.)
TTITLE8=Dj Asylum (Single Edit)
TTITLE9=Mickey Mars (Single Edit)
TTITLE10=Towers Of Dub (Original Mix)
TTITLE11=Pi (Pt.1) (Album Vers.)
EXTD=
EXTT0=
EXTT1=
EXTT2=
EXTT3=
EXTT4=
EXTT5=
EXTT6=
EXTT7=
EXTT8=
EXTT9=
EXTT10=
EXTT11=
PLAYORDER=
